<?xml version="1.0" encoding="utf-8"?>
<!-- Generator: Adobe Illustrator 22.1.0, SVG Export Plug-In . SVG Version: 6.00 Build 0)  -->
<svg version="1.1" id="Lag_1" xmlns="http://www.w3.org/2000/svg" xmlns:xlink="http://www.w3.org/1999/xlink" x="0px" y="0px"
	 viewBox="0 0 24 24" style="enable-background:new 0 0 24 24;" xml:space="preserve">
<style type="text/css">
	.st0{fill:none;stroke:#FFFFFF;stroke-linecap:round;stroke-linejoin:round;stroke-miterlimit:10;}
	.st1{fill:none;}
</style>
<g id="Outline_Icons">
	<g>
		<polygon class="st0" points="20.5,23.5 3.5,23.5 1.5,12.5 22.5,12.5 		"/>
		<path class="st0" d="M8.5,1.5c-2.9,0-5.5,2-6.1,4.9l-0.9,4.1h21l-0.9-4.1c-0.6-2.9-3.2-4.9-6.1-4.9"/>
		<rect x="0.5" y="10.5" class="st0" width="23" height="2"/>
		<line class="st0" x1="14.5" y1="14.5" x2="14.5" y2="20.5"/>
		<line class="st0" x1="18.5" y1="14.5" x2="18.5" y2="20.5"/>
		<line class="st0" x1="9.5" y1="14.5" x2="9.5" y2="20.5"/>
		<line class="st0" x1="5.5" y1="14.5" x2="5.5" y2="20.5"/>
		<path class="st0" d="M15.5,1.5c0,0.6-0.4,1-1,1h-5c-0.6,0-1-0.4-1-1s0.4-1,1-1h5C15.1,0.5,15.5,0.9,15.5,1.5z"/>
	</g>
</g>
<g id="Invisible_Shape">
	<rect y="0" class="st1" width="24" height="24"/>
</g>
</svg>
