<?xml version="1.0" encoding="utf-8"?>
<!-- Generator: Adobe Illustrator 22.1.0, SVG Export Plug-In . SVG Version: 6.00 Build 0)  -->
<svg version="1.1" id="Lag_1" xmlns="http://www.w3.org/2000/svg" xmlns:xlink="http://www.w3.org/1999/xlink" x="0px" y="0px"
	 viewBox="0 0 14.9 15" style="enable-background:new 0 0 14.9 15;" xml:space="preserve">
<style type="text/css">
	.st0{fill:#262626;}
	.st1{fill:#A6A5A4;}
	.st2{fill:#0C0D0D;}
</style>
<path class="st0" d="M5.3,1.5c-1.5,0.7-2,1.6-2.2,2.1C3,3.9,2.7,4,2.4,3.8C2.1,3.6,1.8,3.3,1.7,2.9C1.2,1.8,1.8,0.6,2.9,0.2
	c0.9-0.4,2-0.1,2.5,0.7C5.6,1.1,5.5,1.4,5.3,1.5z"/>
<path class="st0" d="M11.8,3.7C11,2.3,10.1,1.8,9.6,1.6C9.3,1.5,9.2,1.1,9.4,0.9c0.2-0.3,0.5-0.5,0.9-0.7c1.1-0.5,2.4,0.1,2.8,1.1
	c0.4,0.9,0.1,2-0.7,2.5C12.2,4,11.9,3.9,11.8,3.7z"/>
<ellipse transform="matrix(0.5295 -0.8483 0.8483 0.5295 -1.4986 6.7235)" class="st0" cx="5.3" cy="4.7" rx="1.4" ry="1"/>
<ellipse transform="matrix(0.7562 -0.6543 0.6543 0.7562 -0.7632 7.3736)" class="st0" cx="9.5" cy="4.7" rx="1" ry="1.4"/>
<path class="st1" d="M9.9,7.4c0,0-0.7,0.9-0.8,1.1C9,8.6,8.7,8.8,8.7,8.9C8.7,9,8.8,9.2,9,9.2c0.1,0,0.1-0.1,0.2-0.2
	c0.1-0.2,0.9-1.2,0.9-1.2C10.1,7.7,10,7.4,9.9,7.4z"/>
<path class="st1" d="M8.4,9.2c0,0-0.3,0.4-0.6,0.9c-0.3,0.4-1.1,1.5-1.3,1.7C6.4,11.9,6.2,12,6.3,12c0.1,0,0.2,0.2,0.3,0.2
	c0.1,0,0.1,0.1,0.2-0.1s1.5-2,1.7-2.2c0.2-0.2,0.3-0.4,0.4-0.4c0.1-0.1,0-0.1-0.1-0.2C8.5,9.2,8.5,9.2,8.4,9.2z"/>
<polygon class="st2" points="10.9,8.7 10.1,8 10.2,7.9 11.1,8.5 "/>
<polygon class="st2" points="10.7,8.9 9.9,8.3 10,8.1 10.9,8.8 "/>
<polygon class="st2" points="10.5,9.2 9.7,8.6 9.8,8.4 10.7,9.1 "/>
<polygon class="st2" points="10.3,9.5 9.5,8.9 9.6,8.7 10.4,9.3 "/>
<path class="st0" d="M8.8,7L8.8,7c0,0.2-0.1,0.4-0.3,0.4l0,0C8.4,7.5,8.3,7.6,8.1,7.6C8,7.8,7.8,8,7.5,8C7.2,8,6.9,7.8,6.8,7.5
	c-0.1,0-0.1-0.1-0.2-0.1C6.5,7.4,6.4,7.2,6.4,7.1v0c0-0.4,0.5-0.7,1.2-0.7C8.2,6.4,8.7,6.6,8.8,7L8.8,7C8.8,7,8.8,7,8.8,7z"/>
<path class="st0" d="M0.6,8.1c0.3-0.6,1-0.7,1.4-0.1c0.8,1.1,2.3,2.7,3.7,3.1c2.2,0.6,2.1,2.7,1.8,3.3c-0.2,0.7-2.1,1-4.4-0.4
	s-3.5-2.8-3.1-4.3C0.3,8.9,0.4,8.5,0.6,8.1z"/>
<path class="st0" d="M14.2,8.1c-0.3-0.6-1-0.7-1.4-0.1C12,9,10.6,10.7,9.1,11.1c-2.2,0.6-2.1,2.7-1.8,3.3c0.2,0.7,2.1,1,4.4-0.4
	s3.4-2.7,3.1-4.3C14.6,8.9,14.5,8.5,14.2,8.1z"/>
</svg>
