<?xml version="1.0" encoding="UTF-8"?>
<svg width="34px" height="34px" viewBox="0 0 34 34" version="1.1" xmlns="http://www.w3.org/2000/svg" xmlns:xlink="http://www.w3.org/1999/xlink">
    <!-- Generator: Sketch 49.3 (51167) - http://www.bohemiancoding.com/sketch -->
    <title>Page 1</title>
    <desc>Created with Sketch.</desc>
    <defs>
        <polygon id="path-1" points="0.000204 0.51136 33.488164 0.51136 33.488164 34 0.000204 34"></polygon>
    </defs>
    <g id="Welcome" stroke="none" stroke-width="1" fill="none" fill-rule="evenodd">
        <g id="Desktop-HD-Copy-15" transform="translate(-889.000000, -4613.000000)">
            <g id="Group-2" transform="translate(889.000000, 4551.000000)">
                <g id="Page-1" transform="translate(0.000000, 62.000000)">
                    <polygon id="Fill-1" fill="#FFFFFF" points="23.4222222 13.590041 23.4222222 10.9694981 23.4222222 10.5777778 23.0292068 10.5791056 20.4 10.5884007 20.410658 13.6"></polygon>
                    <g id="Group-9">
                        <path d="M16.661428,20.714364 C18.428068,20.714364 19.866268,19.277524 19.866268,17.510884 C19.866268,16.813884 19.638468,16.167204 19.259028,15.642244 C18.677628,14.835084 17.730388,14.306044 16.661428,14.306044 C15.592468,14.306044 14.646588,14.835084 14.063828,15.642244 C13.683708,16.167204 13.457948,16.813884 13.457948,17.510884 C13.457948,19.277524 14.894788,20.714364 16.661428,20.714364" id="Fill-2" fill="#FFFFFF"></path>
                        <g id="Group-6">
                            <mask id="mask-2" fill="white">
                                <use xlink:href="#path-1"></use>
                            </mask>
                            <g id="Clip-5"></g>
                            <path d="M25.764044,15.641972 L25.764044,23.095452 C25.764044,25.034812 24.185084,26.612412 22.245044,26.612412 L11.076724,26.612412 C9.136684,26.612412 7.559084,25.034812 7.559084,23.095452 L7.559084,15.641972 L7.559084,11.926452 C7.559084,9.986412 9.136684,8.408812 11.076724,8.408812 L22.245044,8.408812 C24.185084,8.408812 25.764044,9.986412 25.764044,11.926452 L25.764044,15.641972 Z M16.745204,0.511292 C7.497204,0.511292 0.000204,8.006932 0.000204,17.255612 C0.000204,26.502932 7.497204,34.000612 16.745204,34.000612 C25.991844,34.000612 33.488164,26.502932 33.488164,17.255612 C33.488164,8.006932 25.991164,0.511292 16.745204,0.511292 Z" id="Fill-4" fill="#FFFFFF" mask="url(#mask-2)"></path>
                        </g>
                        <path d="M21.638892,17.510952 C21.638892,20.254072 19.406452,22.487872 16.661292,22.487872 C13.916132,22.487872 11.685052,20.254072 11.685052,17.510952 C11.685052,16.848632 11.816292,16.220312 12.050212,15.641632 L9.332932,15.641632 L9.332932,23.095792 C9.332932,24.057312 10.114932,24.838632 11.076452,24.838632 L22.245452,24.838632 C23.206972,24.838632 23.988972,24.057312 23.988972,23.095792 L23.988972,15.641632 L21.270332,15.641632 C21.506292,16.220312 21.638892,16.849992 21.638892,17.510952" id="Fill-7" fill="#FFFFFF"></path>
                    </g>
                </g>
            </g>
        </g>
    </g>
</svg>