<?xml version="1.0" encoding="utf-8"?>
<!-- Generator: Adobe Illustrator 22.1.0, SVG Export Plug-In . SVG Version: 6.00 Build 0)  -->
<svg version="1.1" xmlns="http://www.w3.org/2000/svg" xmlns:xlink="http://www.w3.org/1999/xlink" x="0px" y="0px"
	 viewBox="0 0 566.9 190.9" style="enable-background:new 0 0 566.9 190.9;" xml:space="preserve">
<style type="text/css">
	.st0{fill:#262626;}
	.st1{fill:#0C0C0C;}
</style>
<g id="Lag_2">
	<path class="st0" d="M500,94.2c0,0-8,10.9-9.2,12.3c-1.2,1.3-4,3.9-4.3,4.6s1.5,3.2,3.1,3.1c1.6-0.1,1.5-0.5,2.6-2.4
		c1.1-1.9,10.4-14.1,10.5-14.3C502.9,97.3,501,93.7,500,94.2z"/>
	<path class="st0" d="M483.2,115.1c0,0-3.3,5.1-7.2,10.1c-3.9,5-13,17.4-14.6,19.2c-1.6,1.7-3.2,2.7-2.6,3.2
		c0.6,0.5,2.3,1.9,3.2,2.2c0.8,0.3,1.3,0.7,2.6-1.3c1.4-2,17.1-22.8,18.9-25.3s3.4-3.9,3.9-4.7c0.5-0.8,0.2-0.9-1.5-2.2
		S483.8,114.2,483.2,115.1z"/>
	<polygon class="st1" points="512,108.5 502.5,101.1 504.1,99.1 513.6,106.5 	"/>
	<polygon class="st1" points="509.9,111.6 500.4,104.3 501.9,102.3 511.5,109.6 	"/>
	<polygon class="st1" points="507.5,115.1 497.9,107.7 499.5,105.8 509,113.1 	"/>
	<polygon class="st1" points="504.9,118.2 495.4,110.8 496.9,108.8 506.5,116.2 	"/>
</g>
<g id="Lag_1">
	<path class="st0" d="M445.6,25.6c-16.7,8.3-22.8,18.1-25,24.2c-1.1,3-4.8,4.3-7.4,2.5c-3.8-2.6-7-6.3-8.9-10.8
		c-5.2-12.5,1-26.6,13.8-31.7c10.8-4.2,22.9-0.6,29.4,8.2C449.5,20.5,448.5,24.2,445.6,25.6z"/>
	<path class="st0" d="M520.4,50.5c-8.7-16.3-18.9-22.2-25.1-24.3c-3.3-1.1-4.4-5.1-2.4-7.8c2.6-3.5,6.2-6.4,10.6-8.1
		c12.7-5.2,27.3,0.7,32.6,13.1c4.5,10.6,0.8,22.5-8.4,29C525.3,54,521.9,53.1,520.4,50.5z"/>
	
		<ellipse transform="matrix(0.5295 -0.8483 0.8483 0.5295 156.9606 407.8856)" class="st0" cx="446.2" cy="62.4" rx="16.1" ry="11.4"/>
	
		<ellipse transform="matrix(0.7562 -0.6543 0.6543 0.7562 79.6875 338.7751)" class="st0" cx="494.5" cy="62.4" rx="11.4" ry="16.2"/>
	<path class="st0" d="M486.1,89.1v0.3c0,2-1.2,3.7-3,4.5c0,0,0,0-0.1,0c-1.2,0.8-2.7,1.5-4.5,2c-1.4,2.5-4.1,4.3-7.3,4.3
		c-3.5,0-6.6-2.2-7.8-5.2c-0.7-0.3-1.4-0.7-2-1.1c-1.8-0.7-3.1-2.4-3.1-4.5v-0.3c0-4.2,6.2-7.6,13.8-7.6c7.2,0,12.9,3,13.7,6.8
		c0,0,0,0.1,0,0.1C486.1,88.7,486.1,88.9,486.1,89.1z"/>
	<path class="st0" d="M392.5,101c3.4-6.6,11.7-7.4,16.1-1.6c9.4,12.6,26,31.6,42.8,36.3c25.6,7.1,23.7,30.9,21,38.3
		c-2.7,7.4-24.6,11.4-51.2-4.5c-26.6-15.9-39.8-31.6-35.1-49.4C388.4,110.5,390.2,105.4,392.5,101z"/>
	<path class="st0" d="M548.9,101c-3.4-6.6-11.7-7.4-16.1-1.6c-9.4,12.6-26,31.6-42.8,36.3c-25.6,7.1-23.7,30.9-21,38.3
		c2.7,7.4,24.6,11.4,51.2-4.5s39.8-31.6,35.1-49.4C553,110.5,551.2,105.4,548.9,101z"/>
</g>
<g id="Lag_4">
	<g>
		<path class="st0" d="M9,174.1v-22h7.9c1.3,0,2.4,0.1,3.3,0.4c0.9,0.3,1.7,0.6,2.2,1.1c0.6,0.5,1,1.1,1.3,1.8
			c0.3,0.7,0.4,1.4,0.4,2.2c0,0.8-0.1,1.4-0.3,2c-0.2,0.6-0.5,1-0.8,1.4c-0.3,0.4-0.7,0.7-1.1,0.9c-0.4,0.2-0.9,0.4-1.3,0.4v0.1
			c1.5,0.2,2.7,0.8,3.4,1.8c0.7,1,1.1,2.2,1.1,3.7c0,1.1-0.2,2.1-0.5,2.9s-0.9,1.4-1.5,1.9c-0.6,0.5-1.4,0.8-2.3,1.1
			c-0.9,0.2-1.8,0.3-2.9,0.3H9z M11.1,161.8h5.3c1.1,0,2-0.1,2.7-0.3c0.7-0.2,1.3-0.5,1.8-0.8c0.4-0.4,0.8-0.8,1-1.3
			s0.3-1.1,0.3-1.8c0-0.7-0.1-1.3-0.3-1.8c-0.2-0.5-0.6-0.9-1.1-1.2c-0.5-0.3-1.1-0.5-1.9-0.6c-0.8-0.1-1.7-0.2-2.9-0.2h-4.8V161.8z
			 M11.1,172.4h5.3c1.1,0,2.1-0.1,3-0.2c0.8-0.1,1.5-0.3,2.1-0.6c0.6-0.3,1-0.8,1.2-1.3c0.3-0.6,0.4-1.3,0.4-2.3
			c0-0.9-0.2-1.7-0.5-2.2c-0.3-0.6-0.7-1-1.3-1.3c-0.6-0.3-1.3-0.5-2-0.6c-0.8-0.1-1.7-0.2-2.7-0.2h-5.5V172.4z"/>
		<path class="st0" d="M30.2,166.6c0,0.9,0.1,1.7,0.3,2.4c0.2,0.8,0.6,1.4,1,2c0.4,0.6,1,1,1.7,1.3c0.7,0.3,1.4,0.5,2.3,0.5
			c1.2,0,2.2-0.3,3.1-0.9c0.9-0.6,1.4-1.5,1.7-2.7h2c-0.2,0.8-0.5,1.5-0.9,2.1c-0.4,0.6-0.8,1.2-1.4,1.7c-0.6,0.5-1.2,0.9-2,1.1
			c-0.8,0.3-1.6,0.4-2.6,0.4c-1.3,0-2.4-0.2-3.3-0.6c-0.9-0.4-1.7-1-2.3-1.8c-0.6-0.7-1-1.6-1.3-2.6s-0.4-2.1-0.4-3.3
			c0-1.2,0.2-2.3,0.5-3.3c0.3-1,0.8-1.9,1.4-2.7c0.6-0.8,1.4-1.4,2.3-1.8c0.9-0.4,1.9-0.7,3.1-0.7c2.2,0,3.9,0.7,5.1,2.2
			s1.9,3.7,1.8,6.5H30.2z M40.6,165.1c0-0.8-0.1-1.5-0.3-2.2c-0.2-0.7-0.5-1.3-0.9-1.8c-0.4-0.5-0.9-0.9-1.6-1.2
			c-0.6-0.3-1.4-0.4-2.2-0.4c-0.8,0-1.5,0.2-2.2,0.5c-0.6,0.3-1.2,0.7-1.6,1.2c-0.4,0.5-0.8,1.1-1.1,1.8c-0.3,0.7-0.4,1.4-0.5,2.1
			H40.6z"/>
		<path class="st0" d="M57.3,163.3c-0.3-1.2-0.9-2.1-1.7-2.8c-0.8-0.7-1.8-1-3-1c-0.9,0-1.7,0.2-2.4,0.6c-0.7,0.4-1.2,0.9-1.7,1.5
			c-0.4,0.6-0.7,1.4-0.9,2.2c-0.2,0.8-0.3,1.6-0.3,2.4c0,0.8,0.1,1.7,0.3,2.4c0.2,0.8,0.5,1.5,0.9,2.1c0.4,0.6,1,1.1,1.7,1.5
			c0.7,0.4,1.5,0.6,2.4,0.6c1.4,0,2.5-0.4,3.3-1.1s1.3-1.8,1.6-3.1h2c-0.2,0.9-0.4,1.7-0.8,2.4c-0.4,0.7-0.8,1.3-1.4,1.9
			c-0.6,0.5-1.2,0.9-2,1.2s-1.7,0.4-2.7,0.4c-1.3,0-2.4-0.2-3.3-0.6c-0.9-0.4-1.7-1-2.3-1.8c-0.6-0.7-1-1.6-1.3-2.6
			s-0.4-2.1-0.4-3.3c0-1.1,0.2-2.2,0.5-3.2c0.3-1,0.8-1.9,1.4-2.7c0.6-0.8,1.4-1.4,2.3-1.8c0.9-0.5,2-0.7,3.1-0.7
			c1.8,0,3.3,0.4,4.4,1.3c1.1,0.9,1.8,2.2,2.1,4.1H57.3z"/>
		<path class="st0" d="M69.4,174.6c-1,0-2-0.2-2.9-0.6c-0.9-0.3-1.7-0.9-2.3-1.6c-0.7-0.7-1.2-1.6-1.6-2.6c-0.4-1-0.6-2.3-0.6-3.6
			c0-1.2,0.2-2.2,0.5-3.3c0.3-1,0.8-1.9,1.4-2.6c0.6-0.8,1.4-1.3,2.3-1.8s2-0.7,3.2-0.7c1.2,0,2.3,0.2,3.2,0.7
			c0.9,0.4,1.7,1,2.3,1.8c0.6,0.7,1.1,1.6,1.4,2.6c0.3,1,0.4,2.1,0.4,3.3c0,1.3-0.2,2.4-0.5,3.4c-0.3,1-0.8,1.9-1.5,2.6
			c-0.6,0.7-1.4,1.3-2.3,1.7C71.5,174.4,70.5,174.6,69.4,174.6z M74.8,166.2c0-0.9-0.1-1.8-0.3-2.6c-0.2-0.8-0.5-1.5-0.9-2.1
			c-0.4-0.6-1-1.1-1.7-1.4c-0.7-0.3-1.5-0.5-2.5-0.5c-1,0-1.8,0.2-2.5,0.6c-0.7,0.4-1.2,0.9-1.7,1.5c-0.4,0.6-0.7,1.3-0.9,2.1
			c-0.2,0.8-0.3,1.6-0.3,2.5c0,1,0.1,1.9,0.4,2.7c0.2,0.8,0.6,1.5,1,2.1c0.4,0.6,1,1.1,1.7,1.4c0.7,0.3,1.4,0.5,2.3,0.5
			c1,0,1.8-0.2,2.5-0.6c0.7-0.4,1.2-0.9,1.7-1.5c0.4-0.6,0.7-1.3,0.9-2.1C74.7,167.9,74.8,167.1,74.8,166.2z"/>
		<path class="st0" d="M81.7,174.1h-1.8v-15.8h1.8v2.4h0.1c0.5-0.9,1.1-1.6,2-2.1c0.9-0.5,1.8-0.7,2.9-0.7c0.7,0,1.4,0.1,1.9,0.2
			c0.5,0.2,0.9,0.4,1.3,0.7c0.4,0.3,0.7,0.6,0.9,1s0.4,0.8,0.6,1.2c0.5-1,1.2-1.8,2.1-2.3c0.9-0.5,1.9-0.7,3-0.7
			c1.1,0,1.9,0.2,2.6,0.5c0.6,0.4,1.1,0.8,1.5,1.4c0.3,0.6,0.6,1.2,0.7,2c0.1,0.8,0.2,1.5,0.2,2.3v10h-1.8v-10.9
			c0-1.1-0.2-2-0.7-2.7c-0.5-0.7-1.4-1-2.7-1c-0.7,0-1.3,0.1-1.9,0.4c-0.6,0.3-1.2,0.7-1.6,1.4c-0.2,0.3-0.4,0.6-0.5,0.9
			c-0.1,0.4-0.2,0.7-0.3,1.1c-0.1,0.4-0.1,0.8-0.2,1.2c0,0.4,0,0.7,0,1.1v8.5h-1.8v-10.9c0-1.1-0.2-2-0.7-2.7c-0.5-0.7-1.4-1-2.7-1
			c-0.7,0-1.3,0.1-1.9,0.4c-0.6,0.3-1.2,0.7-1.6,1.4c-0.2,0.3-0.4,0.6-0.5,0.9c-0.1,0.4-0.2,0.7-0.3,1.1c-0.1,0.4-0.1,0.8-0.2,1.2
			c0,0.4,0,0.7,0,1.1V174.1z"/>
		<path class="st0" d="M106.7,166.6c0,0.9,0.1,1.7,0.3,2.4c0.2,0.8,0.6,1.4,1,2c0.4,0.6,1,1,1.7,1.3c0.7,0.3,1.4,0.5,2.3,0.5
			c1.2,0,2.2-0.3,3.1-0.9c0.9-0.6,1.4-1.5,1.7-2.7h2c-0.2,0.8-0.5,1.5-0.9,2.1c-0.4,0.6-0.8,1.2-1.4,1.7c-0.6,0.5-1.2,0.9-2,1.1
			c-0.8,0.3-1.6,0.4-2.6,0.4c-1.3,0-2.4-0.2-3.3-0.6c-0.9-0.4-1.7-1-2.3-1.8c-0.6-0.7-1-1.6-1.3-2.6s-0.4-2.1-0.4-3.3
			c0-1.2,0.2-2.3,0.5-3.3c0.3-1,0.8-1.9,1.4-2.7c0.6-0.8,1.4-1.4,2.3-1.8c0.9-0.4,1.9-0.7,3.1-0.7c2.2,0,3.9,0.7,5.1,2.2
			s1.9,3.7,1.8,6.5H106.7z M117,165.1c0-0.8-0.1-1.5-0.3-2.2c-0.2-0.7-0.5-1.3-0.9-1.8c-0.4-0.5-0.9-0.9-1.6-1.2
			c-0.6-0.3-1.4-0.4-2.2-0.4c-0.8,0-1.5,0.2-2.2,0.5c-0.6,0.3-1.2,0.7-1.6,1.2c-0.4,0.5-0.8,1.1-1.1,1.8c-0.3,0.7-0.4,1.4-0.5,2.1
			H117z"/>
		<path class="st0" d="M138.3,164.9c0.3,0,0.8-0.1,1.2-0.2c0.5-0.1,0.9-0.2,1.2-0.3c0.3-0.1,0.5-0.4,0.6-0.7
			c0.1-0.3,0.1-0.6,0.1-0.9c0-0.9-0.3-1.7-0.9-2.3c-0.6-0.6-1.6-0.9-3-0.9c-0.6,0-1.2,0.1-1.7,0.2c-0.5,0.1-1,0.3-1.4,0.6
			c-0.4,0.3-0.7,0.6-1,1.1c-0.3,0.5-0.4,1-0.5,1.7H131c0.1-0.9,0.3-1.7,0.6-2.4c0.4-0.7,0.8-1.2,1.4-1.6c0.6-0.4,1.3-0.7,2-0.9
			c0.8-0.2,1.6-0.3,2.4-0.3c0.8,0,1.5,0.1,2.2,0.3c0.7,0.2,1.3,0.4,1.8,0.8c0.5,0.4,0.9,0.9,1.2,1.5c0.3,0.6,0.4,1.4,0.4,2.3v8.6
			c0,0.7,0.1,1.2,0.4,1.4s0.8,0.1,1.5-0.1v1.4c-0.1,0-0.4,0.1-0.6,0.2c-0.3,0.1-0.5,0.1-0.8,0.1c-0.3,0-0.6,0-0.8-0.1
			c-0.3,0-0.6-0.1-0.7-0.3c-0.2-0.2-0.3-0.3-0.4-0.6c-0.1-0.2-0.2-0.4-0.2-0.7c0-0.3-0.1-0.5-0.1-0.8c-0.8,0.9-1.7,1.5-2.7,2
			c-1,0.4-2.1,0.7-3.2,0.7c-0.7,0-1.4-0.1-2-0.3c-0.6-0.2-1.2-0.5-1.7-0.9c-0.5-0.4-0.9-0.9-1.2-1.4c-0.3-0.6-0.4-1.2-0.4-2
			c0-2.7,1.8-4.3,5.5-4.8L138.3,164.9z M141.4,165.8c-0.8,0.3-1.6,0.5-2.4,0.6c-0.8,0.1-1.6,0.2-2.4,0.2c-1.4,0.1-2.5,0.4-3.3,0.9
			c-0.8,0.5-1.2,1.3-1.2,2.4c0,0.5,0.1,0.9,0.3,1.3c0.2,0.4,0.4,0.7,0.8,0.9c0.3,0.2,0.7,0.4,1.1,0.5c0.4,0.1,0.8,0.2,1.3,0.2
			c0.7,0,1.4-0.1,2.1-0.3c0.7-0.2,1.3-0.5,1.8-0.8c0.5-0.4,1-0.9,1.3-1.4c0.3-0.6,0.5-1.3,0.5-2.1V165.8z"/>
		<path class="st0" d="M149.9,174.1H148v-15.8h1.8v2.2c0.7-0.8,1.5-1.4,2.3-1.9c0.8-0.5,1.7-0.7,2.8-0.7c1,0,1.9,0.2,2.7,0.5
			c0.8,0.3,1.5,0.9,2.1,1.8c0.4,0.6,0.6,1.2,0.7,1.8c0.1,0.6,0.1,1.2,0.1,1.9v10.4h-1.8v-10.3c0-1.4-0.3-2.5-0.9-3.2
			c-0.6-0.7-1.7-1.1-3.1-1.1c-0.6,0-1.1,0.1-1.6,0.3c-0.5,0.2-0.9,0.4-1.3,0.7s-0.7,0.6-1,1c-0.3,0.4-0.5,0.8-0.6,1.2
			c-0.2,0.5-0.3,1-0.3,1.5c0,0.5-0.1,1-0.1,1.5V174.1z"/>
		<path class="st0" d="M174.7,166.6c0,0.9,0.1,1.7,0.3,2.4c0.2,0.8,0.6,1.4,1,2c0.4,0.6,1,1,1.7,1.3c0.7,0.3,1.4,0.5,2.3,0.5
			c1.2,0,2.2-0.3,3.1-0.9c0.9-0.6,1.4-1.5,1.7-2.7h2c-0.2,0.8-0.5,1.5-0.9,2.1c-0.4,0.6-0.8,1.2-1.4,1.7c-0.6,0.5-1.2,0.9-2,1.1
			c-0.8,0.3-1.6,0.4-2.6,0.4c-1.3,0-2.4-0.2-3.3-0.6c-0.9-0.4-1.7-1-2.3-1.8c-0.6-0.7-1-1.6-1.3-2.6s-0.4-2.1-0.4-3.3
			c0-1.2,0.2-2.3,0.5-3.3c0.3-1,0.8-1.9,1.4-2.7c0.6-0.8,1.4-1.4,2.3-1.8c0.9-0.4,1.9-0.7,3.1-0.7c2.2,0,3.9,0.7,5.1,2.2
			c1.2,1.5,1.9,3.7,1.8,6.5H174.7z M185,165.1c0-0.8-0.1-1.5-0.3-2.2c-0.2-0.7-0.5-1.3-0.9-1.8c-0.4-0.5-0.9-0.9-1.6-1.2
			c-0.6-0.3-1.4-0.4-2.2-0.4c-0.8,0-1.5,0.2-2.2,0.5c-0.6,0.3-1.2,0.7-1.6,1.2c-0.4,0.5-0.8,1.1-1.1,1.8c-0.3,0.7-0.4,1.4-0.5,2.1
			H185z"/>
		<path class="st0" d="M188.8,158.3h2l5.1,13.6l5.1-13.6h2l-6.1,15.8h-2L188.8,158.3z"/>
		<path class="st0" d="M206.9,166.6c0,0.9,0.1,1.7,0.3,2.4c0.2,0.8,0.6,1.4,1,2c0.4,0.6,1,1,1.7,1.3c0.7,0.3,1.4,0.5,2.3,0.5
			c1.2,0,2.2-0.3,3.1-0.9c0.9-0.6,1.4-1.5,1.7-2.7h2c-0.2,0.8-0.5,1.5-0.9,2.1c-0.4,0.6-0.8,1.2-1.4,1.7c-0.6,0.5-1.2,0.9-2,1.1
			s-1.6,0.4-2.6,0.4c-1.3,0-2.4-0.2-3.3-0.6c-0.9-0.4-1.7-1-2.3-1.8c-0.6-0.7-1-1.6-1.3-2.6s-0.4-2.1-0.4-3.3c0-1.2,0.2-2.3,0.5-3.3
			c0.3-1,0.8-1.9,1.4-2.7c0.6-0.8,1.4-1.4,2.3-1.8s1.9-0.7,3.1-0.7c2.2,0,3.9,0.7,5.1,2.2c1.2,1.5,1.9,3.7,1.8,6.5H206.9z
			 M217.3,165.1c0-0.8-0.1-1.5-0.3-2.2c-0.2-0.7-0.5-1.3-0.9-1.8c-0.4-0.5-0.9-0.9-1.6-1.2c-0.6-0.3-1.4-0.4-2.2-0.4
			c-0.8,0-1.5,0.2-2.2,0.5c-0.6,0.3-1.2,0.7-1.6,1.2c-0.4,0.5-0.8,1.1-1.1,1.8c-0.3,0.7-0.4,1.4-0.5,2.1H217.3z"/>
		<path class="st0" d="M224.7,174.1h-1.8v-15.8h1.8v3h0.1c0.5-1.3,1.2-2.1,2-2.6c0.8-0.5,1.9-0.7,3.2-0.7v2c-1,0-1.9,0.1-2.6,0.5
			c-0.7,0.3-1.2,0.8-1.6,1.4s-0.7,1.3-0.8,2.1s-0.2,1.6-0.2,2.5V174.1z"/>
		<path class="st0" d="M232.9,178.4c0.2,0,0.5,0.1,0.7,0.1c0.3,0,0.5,0.1,0.8,0.1c0.5,0,0.9-0.2,1.3-0.5c0.3-0.3,0.6-0.7,0.8-1.2
			c0.2-0.5,0.4-0.9,0.5-1.4c0.1-0.5,0.3-0.9,0.5-1.3l-6.1-15.9h2l5.1,13.6l5.1-13.6h2l-5.9,15.6c-0.4,1-0.7,1.9-1.1,2.7
			c-0.3,0.8-0.7,1.5-1.1,2c-0.4,0.6-0.8,1-1.3,1.3s-1,0.4-1.6,0.4c-0.3,0-0.6,0-0.9-0.1c-0.3,0-0.6-0.1-0.8-0.2V178.4z"/>
		<path class="st0" d="M269,152.1h1.8v22H269v-2.8h-0.1c-0.3,0.5-0.6,1-1,1.4c-0.4,0.4-0.9,0.7-1.4,1c-0.5,0.3-1,0.5-1.5,0.6
			c-0.5,0.1-1,0.2-1.6,0.2c-1.3,0-2.4-0.2-3.3-0.6c-0.9-0.4-1.6-1-2.2-1.8c-0.6-0.7-1-1.6-1.3-2.6c-0.3-1-0.4-2.1-0.4-3.3
			c0-1.1,0.1-2.2,0.4-3.2c0.3-1,0.7-1.9,1.3-2.7c0.6-0.8,1.3-1.4,2.2-1.8s1.9-0.7,3.1-0.7c1.1,0,2.2,0.2,3.2,0.7
			c1,0.5,1.8,1.2,2.4,2.2V152.1z M269,166.2c0-0.9-0.1-1.7-0.4-2.6c-0.2-0.8-0.6-1.5-1.1-2.1c-0.5-0.6-1-1.1-1.7-1.4
			c-0.7-0.4-1.4-0.5-2.2-0.5c-1,0-1.8,0.2-2.5,0.6c-0.7,0.4-1.3,0.9-1.7,1.5c-0.4,0.7-0.8,1.4-1,2.3c-0.2,0.9-0.3,1.8-0.2,2.8
			c0,1,0.1,1.9,0.4,2.6c0.3,0.8,0.7,1.4,1.1,1.9c0.5,0.5,1.1,0.9,1.7,1.2c0.7,0.3,1.4,0.4,2.1,0.4c0.9,0,1.6-0.2,2.3-0.5
			c0.7-0.3,1.2-0.8,1.7-1.4c0.4-0.6,0.8-1.3,1-2.1C268.9,168,269,167.1,269,166.2z"/>
		<path class="st0" d="M282.7,164.9c0.3,0,0.8-0.1,1.2-0.2c0.5-0.1,0.9-0.2,1.2-0.3c0.3-0.1,0.5-0.4,0.6-0.7
			c0.1-0.3,0.1-0.6,0.1-0.9c0-0.9-0.3-1.7-0.9-2.3c-0.6-0.6-1.6-0.9-3-0.9c-0.6,0-1.2,0.1-1.7,0.2c-0.5,0.1-1,0.3-1.4,0.6
			c-0.4,0.3-0.7,0.6-1,1.1c-0.3,0.5-0.4,1-0.5,1.7h-1.9c0.1-0.9,0.3-1.7,0.6-2.4c0.4-0.7,0.8-1.2,1.4-1.6c0.6-0.4,1.3-0.7,2-0.9
			c0.8-0.2,1.6-0.3,2.4-0.3c0.8,0,1.5,0.1,2.2,0.3c0.7,0.2,1.3,0.4,1.8,0.8c0.5,0.4,0.9,0.9,1.2,1.5c0.3,0.6,0.4,1.4,0.4,2.3v8.6
			c0,0.7,0.1,1.2,0.4,1.4c0.3,0.2,0.8,0.1,1.5-0.1v1.4c-0.1,0-0.4,0.1-0.6,0.2c-0.3,0.1-0.5,0.1-0.8,0.1c-0.3,0-0.6,0-0.8-0.1
			c-0.3,0-0.6-0.1-0.7-0.3c-0.2-0.2-0.3-0.3-0.4-0.6c-0.1-0.2-0.2-0.4-0.2-0.7c0-0.3-0.1-0.5-0.1-0.8c-0.8,0.9-1.7,1.5-2.7,2
			c-1,0.4-2.1,0.7-3.2,0.7c-0.7,0-1.4-0.1-2-0.3c-0.6-0.2-1.2-0.5-1.7-0.9c-0.5-0.4-0.9-0.9-1.2-1.4c-0.3-0.6-0.4-1.2-0.4-2
			c0-2.7,1.8-4.3,5.5-4.8L282.7,164.9z M285.8,165.8c-0.8,0.3-1.6,0.5-2.4,0.6c-0.8,0.1-1.6,0.2-2.4,0.2c-1.4,0.1-2.5,0.4-3.3,0.9
			c-0.8,0.5-1.2,1.3-1.2,2.4c0,0.5,0.1,0.9,0.3,1.3c0.2,0.4,0.4,0.7,0.8,0.9c0.3,0.2,0.7,0.4,1.1,0.5c0.4,0.1,0.8,0.2,1.3,0.2
			c0.7,0,1.4-0.1,2.1-0.3c0.7-0.2,1.3-0.5,1.8-0.8c0.5-0.4,1-0.9,1.3-1.4c0.3-0.6,0.5-1.3,0.5-2.1V165.8z"/>
		<path class="st0" d="M292.3,178.4c0.2,0,0.5,0.1,0.7,0.1c0.3,0,0.5,0.1,0.8,0.1c0.5,0,0.9-0.2,1.3-0.5c0.3-0.3,0.6-0.7,0.8-1.2
			c0.2-0.5,0.4-0.9,0.5-1.4c0.1-0.5,0.3-0.9,0.5-1.3l-6.1-15.9h2l5.1,13.6l5.1-13.6h2l-5.9,15.6c-0.4,1-0.7,1.9-1.1,2.7
			c-0.3,0.8-0.7,1.5-1.1,2c-0.4,0.6-0.8,1-1.3,1.3c-0.5,0.3-1,0.4-1.6,0.4c-0.3,0-0.6,0-0.9-0.1c-0.3,0-0.6-0.1-0.8-0.2V178.4z"/>
		<path class="st0" d="M316.2,174.1v-22h1.8v8.4c0.7-0.8,1.5-1.4,2.3-1.9c0.8-0.5,1.7-0.7,2.8-0.7c1,0,1.9,0.2,2.7,0.5
			c0.8,0.3,1.5,0.9,2.1,1.8c0.4,0.6,0.6,1.2,0.7,1.8c0.1,0.6,0.1,1.2,0.1,1.9v10.4h-1.8v-10.3c0-1.4-0.3-2.5-0.9-3.2
			c-0.6-0.7-1.7-1.1-3.1-1.1c-0.6,0-1.1,0.1-1.6,0.3c-0.5,0.2-0.9,0.4-1.3,0.7s-0.7,0.6-1,1c-0.3,0.4-0.5,0.8-0.6,1.2
			c-0.2,0.5-0.3,1-0.3,1.5c0,0.5-0.1,1-0.1,1.5v8.5H316.2z"/>
		<path class="st0" d="M334.3,166.6c0,0.9,0.1,1.7,0.3,2.4c0.2,0.8,0.6,1.4,1,2c0.4,0.6,1,1,1.7,1.3c0.7,0.3,1.4,0.5,2.3,0.5
			c1.2,0,2.2-0.3,3.1-0.9c0.9-0.6,1.4-1.5,1.7-2.7h2c-0.2,0.8-0.5,1.5-0.9,2.1c-0.4,0.6-0.8,1.2-1.4,1.7c-0.6,0.5-1.2,0.9-2,1.1
			s-1.6,0.4-2.6,0.4c-1.3,0-2.4-0.2-3.3-0.6c-0.9-0.4-1.7-1-2.3-1.8c-0.6-0.7-1-1.6-1.3-2.6c-0.3-1-0.4-2.1-0.4-3.3
			c0-1.2,0.2-2.3,0.5-3.3c0.3-1,0.8-1.9,1.4-2.7c0.6-0.8,1.4-1.4,2.3-1.8s1.9-0.7,3.1-0.7c2.2,0,3.9,0.7,5.1,2.2
			c1.2,1.5,1.9,3.7,1.8,6.5H334.3z M344.7,165.1c0-0.8-0.1-1.5-0.3-2.2c-0.2-0.7-0.5-1.3-0.9-1.8c-0.4-0.5-0.9-0.9-1.6-1.2
			c-0.6-0.3-1.4-0.4-2.2-0.4c-0.8,0-1.5,0.2-2.2,0.5c-0.6,0.3-1.2,0.7-1.6,1.2c-0.4,0.5-0.8,1.1-1.1,1.8c-0.3,0.7-0.4,1.4-0.5,2.1
			H344.7z"/>
		<path class="st0" d="M352.1,174.1h-1.8v-15.8h1.8v3h0.1c0.5-1.3,1.2-2.1,2-2.6c0.8-0.5,1.9-0.7,3.2-0.7v2c-1,0-1.9,0.1-2.6,0.5
			c-0.7,0.3-1.2,0.8-1.6,1.4c-0.4,0.6-0.7,1.3-0.8,2.1s-0.2,1.6-0.2,2.5V174.1z"/>
		<path class="st0" d="M366.7,174.6c-1,0-2-0.2-2.9-0.6c-0.9-0.3-1.7-0.9-2.3-1.6c-0.7-0.7-1.2-1.6-1.6-2.6c-0.4-1-0.6-2.3-0.6-3.6
			c0-1.2,0.2-2.2,0.5-3.3c0.3-1,0.8-1.9,1.4-2.6c0.6-0.8,1.4-1.3,2.3-1.8s2-0.7,3.2-0.7c1.2,0,2.3,0.2,3.2,0.7
			c0.9,0.4,1.7,1,2.3,1.8c0.6,0.7,1.1,1.6,1.4,2.6c0.3,1,0.4,2.1,0.4,3.3c0,1.3-0.2,2.4-0.5,3.4c-0.3,1-0.8,1.9-1.5,2.6
			c-0.6,0.7-1.4,1.3-2.3,1.7C368.8,174.4,367.8,174.6,366.7,174.6z M372,166.2c0-0.9-0.1-1.8-0.3-2.6c-0.2-0.8-0.5-1.5-0.9-2.1
			c-0.4-0.6-1-1.1-1.7-1.4c-0.7-0.3-1.5-0.5-2.5-0.5c-1,0-1.8,0.2-2.5,0.6c-0.7,0.4-1.2,0.9-1.7,1.5c-0.4,0.6-0.7,1.3-0.9,2.1
			c-0.2,0.8-0.3,1.6-0.3,2.5c0,1,0.1,1.9,0.4,2.7c0.2,0.8,0.6,1.5,1,2.1c0.4,0.6,1,1.1,1.7,1.4c0.7,0.3,1.4,0.5,2.3,0.5
			c1,0,1.8-0.2,2.5-0.6c0.7-0.4,1.2-0.9,1.7-1.5c0.4-0.6,0.7-1.3,0.9-2.1C371.9,167.9,372,167.1,372,166.2z"/>
	</g>
</g>
<g id="p">
	<path class="st0" d="M37.7,94.5H21.6v41.9H9V22.6h27.5c12.1,0,21.6,3.4,28.6,10.2s10.5,15.6,10.5,26.4c0,10.1-3.5,18.5-10.4,25.2
		C58.2,91.2,49.1,94.5,37.7,94.5z M36.6,34.3h-15v48.6h16.1c7.9,0,14-2.2,18.5-6.7c4.4-4.4,6.7-10.1,6.7-17c0-7.7-2.3-13.7-6.8-18.2
		C51.4,36.5,45,34.3,36.6,34.3z"/>
</g>
<g id="u">
	<path class="st0" d="M154,136.4h-12.3v-14.9c-4.1,10.6-12.4,15.9-24.7,15.9c-7.8,0-13.9-2.5-18.4-7.5c-4.5-5-6.7-11.7-6.7-20.2
		V50.8h12.3v55.5c0,6.2,1.4,10.9,4.3,14.2c2.9,3.3,6.8,4.9,11.8,4.9c6.5,0,11.7-2.5,15.6-7.4c3.9-4.9,5.8-11.6,5.8-20.1V50.8H154
		V136.4z"/>
</g>
<g id="l">
	<path class="st0" d="M189.5,136.4h-12.3V22h12.3V136.4z"/>
</g>
<g id="i">
	<path class="st0" d="M231.8,24.2c0.1,10.2-12.7,18.7-12.7,18.7s-12.9-8.2-13-18.4C206,14.2,218.7,5.8,218.7,5.8
		S231.7,13.9,231.8,24.2z"/>
	<path class="st0" d="M214.6,51.5c0,0,0.7,28.7,0.4,32.4c-0.3,3.7-1.7,11.6-1.2,13.2c0.5,1.6,6.4,3.5,9,1.4c2.6-2.2,1.9-2.8,1.3-7.3
		c-0.6-4.6-0.8-37.1-0.7-37.5C223.4,53.1,215.7,49.3,214.6,51.5z"/>
	<path class="st0" d="M213.7,105c0,0,1.3,4.7,1.4,9.6s1.6,16.7,1.3,18.5c-0.3,1.8-1.6,3.1-0.1,3.1c1.5,0.1,6.3,0.3,7.9,0.2
		s2.9,0,2.5-1.9c-0.4-1.9-1.9-21.9-2.1-24.3c-0.3-2.3,0.4-4,0.3-4.7c-0.2-0.7-0.9-0.7-5.3-0.9S213.5,104.2,213.7,105z"/>
</g>
<g id="t">
	<path class="st0" d="M288.4,134.2c-3.4,2-7.2,3-11.5,3c-15.5,0-23.3-8.6-23.3-25.8V61.6H241V50.8h12.6l0-28.8h12.3l0,28.8h21.7
		v10.8h-21.7v50.1c0,9.1,3.9,13.7,11.8,13.7c4,0,7.6-1.3,10.7-3.9V134.2z"/>
</g>
<g id="o">
	<path class="st0" d="M375.4,93.9c0,12.7-3.3,23.2-9.9,31.6c-6.6,8.3-15.7,12.5-27.3,12.5c-11.3,0-20.2-4.1-26.8-12.4
		c-6.6-8.3-9.8-18.7-9.8-31.3c0-12.7,3.4-23.3,10.2-31.8c6.8-8.5,15.6-12.7,26.4-12.7c11.9,0,21.1,4.2,27.5,12.5
		C372.1,70.4,375.4,81,375.4,93.9z M314.3,94c0,8.9,2.2,16.5,6.5,22.7c4.3,6.2,10.1,9.4,17.4,9.4c7.9,0,13.9-3.1,18.1-9.2
		c4.2-6.1,6.4-13.8,6.4-22.9c0-9.5-2-17.2-6-23.4c-4-6.1-10.2-9.2-18.5-9.2c-7.4,0-13.3,3.2-17.5,9.5
		C316.4,77.2,314.3,84.9,314.3,94z"/>
</g>
</svg>
